<svg id="visual" viewBox="0 0 900 600" width="900" height="600" xmlns="http://www.w3.org/2000/svg" xmlns:xlink="http://www.w3.org/1999/xlink" version="1.1"><g transform="translate(417.03398231167904 321.7767585727798)"><path d="M173.1 -204.9C222.3 -165 258.9 -108.5 266 -49.6C273.2 9.3 250.9 70.6 210.2 102.8C169.5 135 110.4 138 56.4 159.7C2.4 181.4 -46.5 221.8 -84.7 215.4C-122.8 208.9 -150.2 155.7 -171.4 105.5C-192.5 55.3 -207.6 8 -198.9 -34C-190.2 -76 -157.8 -112.7 -120.7 -154.8C-83.6 -196.9 -41.8 -244.5 10.1 -256.5C61.9 -268.5 123.8 -244.9 173.1 -204.9" fill="#f8ebba"></path></g></svg>